# xmcd
#
# Track frame offsets:
#	150
#	11057
#	21877
#	31587
#	41080
#	50987
#	61855
#	71350
#	82087
#	95340
#	106767
#	116760
#	127260
#	137967
#	146515
#	157217
#	166535
#	176430
#	186412
#	195625
#	206170
#	217587
#	228157
#	238940
#	249520
#	262975
#	273667
#	284780
#	295540
#	304860
#
# Disc length: 4194 seconds
#
# Revision: 0
# Processed by: cddbd v1.5.2PL0 Copyright (c) Steve Scherf et al.
# Submitted via: dBpowerAMP V4.0
#
DISCID=c010601e
DTITLE=Maddox Brothers and Rose - Ugly And Slouchy
DYEAR=2006
DGENRE=Bluegrass
TTITLE0=Wild WIld Young Men
TTITLE1=I'll Make Sweet Love To You
TTITLE2=No Help Wanted
TTITLE3=Hearts and Flowers
TTITLE4=Ugly and Slouchy
TTITLE5=I'm a Little Red Caboose
TTITLE6=Kiss Me Quick and Go
TTITLE7=The Time is Spring
TTITLE8=Hey Little Dreamboat
TTITLE9=You Wont Believe This
TTITLE10=Fountain Of Youth
TTITLE11=I Wonder If I Can Lose The Blues This Way
TTITLE12=Paul Bunyan Love
TTITLE13=I've Got Four Big Brothers
TTITLE14=I Gotta Go Get My Baby
TTITLE15=No More Time
TTITLE16=The Hoot-Owl Melody
TTITLE17=Looky There Over Here
TTITLE18=I'll Find Her
TTITLE19=Old Black Choo Choo
TTITLE20=Tall Man
TTITLE21=I'll Go Steppin Too
TTITLE22=Love Is Strange
TTITLE23=Did You Ever Come Home
TTITLE24=Old Man Blues
TTITLE25=A Short Life and its Troubles
TTITLE26=Stop Whistlin Wolf
TTITLE27=Dig A Hole
TTITLE28=Let Me Love You
TTITLE29=The Death Of Rock And Roll
EXTD=
EXTT0=
EXTT1=
EXTT2=
EXTT3=
EXTT4=
EXTT5=
EXTT6=
EXTT7=
EXTT8=
EXTT9=
EXTT10=
EXTT11=
EXTT12=
EXTT13=
EXTT14=
EXTT15=
EXTT16=
EXTT17=
EXTT18=
EXTT19=
EXTT20=
EXTT21=
EXTT22=
EXTT23=
EXTT24=
EXTT25=
EXTT26=
EXTT27=
EXTT28=
EXTT29=
PLAYORDER=
